<svg width="64" height="64" viewBox="0 0 64 64" fill="none" xmlns="http://www.w3.org/2000/svg">
<path d="M21.3333 37.3333C21.3333 37.3333 25.3333 42.6667 32 42.6667C38.6667 42.6667 42.6667 37.3333 42.6667 37.3333M45.3333 24.64C44.28 25.9333 42.84 26.6667 41.3333 26.6667C39.8267 26.6667 38.4267 25.9333 37.3333 24.64M26.6667 24.64C25.6133 25.9333 24.1733 26.6667 22.6667 26.6667C21.16 26.6667 19.76 25.9333 18.6667 24.64M58.6667 32C58.6667 46.7276 46.7276 58.6667 32 58.6667C17.2724 58.6667 5.33334 46.7276 5.33334 32C5.33334 17.2724 17.2724 5.33333 32 5.33333C46.7276 5.33333 58.6667 17.2724 58.6667 32Z" stroke="black" stroke-width="5" stroke-linecap="round" stroke-linejoin="round"/>
</svg>
