<svg width="339" height="41" viewBox="0 0 339 41" fill="none" xmlns="http://www.w3.org/2000/svg">
<path d="M318.093 32.4032H315.107L325.048 8.18607H328.13L338.055 32.4032H335.07L332.439 25.8646H320.723L318.093 32.4032ZM321.724 23.346H331.439L326.581 11.2536L321.724 23.346Z" fill="white"/>
<path d="M309.866 32.4032H306.703L300.926 22.5549H295.213V32.4032H292.373V8.18607H300.748C302.48 8.18607 303.97 8.47667 305.218 9.05788C306.466 9.6391 307.429 10.4679 308.107 11.5442C308.785 12.6097 309.124 13.8852 309.124 15.3705C309.124 17.1034 308.661 18.5564 307.736 19.7296C306.821 20.9028 305.536 21.7154 303.879 22.1674L309.866 32.4032ZM295.213 20.0363H300.571C302.324 20.0363 303.701 19.622 304.702 18.7932C305.713 17.9644 306.219 16.8235 306.219 15.3705C306.219 13.9175 305.719 12.7766 304.718 11.9478C303.717 11.119 302.335 10.7047 300.571 10.7047H295.213V20.0363Z" fill="white"/>
<path d="M272.607 32.8876C270.789 32.8876 269.111 32.5754 267.573 31.9512C266.045 31.3269 264.716 30.4497 263.587 29.3196C262.457 28.1787 261.58 26.8441 260.956 25.3157C260.332 23.7765 260.02 22.1029 260.02 20.2947C260.02 18.4757 260.332 16.802 260.956 15.2736C261.58 13.7345 262.457 12.3999 263.587 11.2697C264.716 10.1396 266.045 9.26238 267.573 8.63812C269.111 8.01385 270.789 7.70172 272.607 7.70172C274.426 7.70172 276.099 8.01385 277.626 8.63812C279.154 9.26238 280.483 10.1396 281.612 11.2697C282.742 12.3999 283.619 13.7345 284.243 15.2736C284.867 16.802 285.179 18.4757 285.179 20.2947C285.179 22.1029 284.867 23.7765 284.243 25.3157C283.619 26.8441 282.742 28.1787 281.612 29.3196C280.483 30.4497 279.154 31.3269 277.626 31.9512C276.099 32.5754 274.426 32.8876 272.607 32.8876ZM272.607 30.369C273.995 30.369 275.276 30.1161 276.448 29.6102C277.632 29.1043 278.659 28.3993 279.53 27.4952C280.402 26.5804 281.074 25.5148 281.548 24.2986C282.032 23.0716 282.274 21.7369 282.274 20.2947C282.274 18.8524 282.032 17.5177 281.548 16.2907C281.074 15.0637 280.402 13.9982 279.53 13.0941C278.659 12.1792 277.632 11.4742 276.448 10.9791C275.276 10.4732 273.995 10.2203 272.607 10.2203C271.22 10.2203 269.934 10.4732 268.751 10.9791C267.578 11.4742 266.556 12.1792 265.684 13.0941C264.813 13.9982 264.135 15.0637 263.651 16.2907C263.167 17.5177 262.925 18.8524 262.925 20.2947C262.925 21.7369 263.167 23.0716 263.651 24.2986C264.135 25.5256 264.813 26.5965 265.684 27.5114C266.556 28.4155 267.578 29.1205 268.751 29.6263C269.934 30.1214 271.22 30.369 272.607 30.369Z" fill="white"/>
<path d="M247 32.4032H244.16V10.7047H236.382V8.18607H254.779V10.7047H247V32.4032Z" fill="white"/>
<path d="M230.818 29.3034C229.709 30.4228 228.386 31.3 226.848 31.935C225.309 32.5701 223.631 32.8876 221.813 32.8876C219.995 32.8876 218.316 32.5754 216.778 31.9512C215.25 31.3269 213.922 30.4497 212.792 29.3196C211.662 28.1787 210.785 26.8441 210.162 25.3157C209.538 23.7765 209.226 22.1029 209.226 20.2947C209.226 18.4757 209.538 16.802 210.162 15.2736C210.785 13.7345 211.662 12.3999 212.792 11.2697C213.922 10.1396 215.25 9.26238 216.778 8.63812C218.316 8.01385 219.995 7.70172 221.813 7.70172C223.62 7.70172 225.293 8.01924 226.832 8.65426C228.37 9.27853 229.693 10.1503 230.801 11.2697L228.817 13.2878C227.956 12.3299 226.923 11.5819 225.718 11.0437C224.513 10.4948 223.195 10.2203 221.764 10.2203C220.377 10.2203 219.096 10.4732 217.924 10.9791C216.751 11.4742 215.729 12.1792 214.858 13.0941C213.997 13.9982 213.324 15.0637 212.84 16.2907C212.367 17.5177 212.13 18.8524 212.13 20.2947C212.13 21.7477 212.367 23.0877 212.84 24.3147C213.324 25.5309 213.997 26.5965 214.858 27.5114C215.729 28.4155 216.751 29.1205 217.924 29.6263C219.096 30.1214 220.377 30.369 221.764 30.369C223.195 30.369 224.513 30.0999 225.718 29.5618C226.923 29.0128 227.956 28.2594 228.817 27.3015L230.818 29.3034Z" fill="white"/>
<path d="M202.193 8.18607V21.5701C202.193 23.9165 201.784 25.9399 200.966 27.6405C200.159 29.3303 198.998 30.6273 197.481 31.5314C195.964 32.4355 194.146 32.8876 192.026 32.8876C189.917 32.8876 188.105 32.4355 186.588 31.5314C185.071 30.6273 183.904 29.3303 183.086 27.6405C182.279 25.9399 181.876 23.9165 181.876 21.5701V8.18607H184.716V21.3441C184.716 23.2491 185.006 24.8744 185.587 26.2198C186.168 27.5652 187.002 28.5931 188.089 29.3034C189.186 30.0138 190.498 30.369 192.026 30.369C193.565 30.369 194.877 30.0138 195.964 29.3034C197.061 28.5931 197.9 27.5652 198.481 26.2198C199.062 24.8744 199.353 23.2491 199.353 21.3441V8.18607H202.193Z" fill="white"/>
<path d="M153.428 32.4032V8.18607H160.4C163.369 8.18607 165.919 8.67041 168.049 9.6391C170.19 10.6078 171.83 11.9962 172.971 13.8045C174.122 15.6127 174.698 17.7761 174.698 20.2947C174.698 22.8025 174.122 24.9659 172.971 26.7849C171.83 28.5931 170.19 29.9815 168.049 30.9502C165.919 31.9189 163.369 32.4032 160.4 32.4032H153.428ZM156.268 29.8847H160.529C162.906 29.8847 164.934 29.5079 166.613 28.7545C168.291 28.0011 169.571 26.9086 170.453 25.4771C171.346 24.0456 171.793 22.3181 171.793 20.2947C171.793 18.2712 171.346 16.5437 170.453 15.1122C169.571 13.6807 168.291 12.5882 166.613 11.8348C164.934 11.0814 162.906 10.7047 160.529 10.7047H156.268V29.8847Z" fill="white"/>
<path d="M133.663 32.8876C131.845 32.8876 130.167 32.5754 128.628 31.9512C127.1 31.3269 125.772 30.4497 124.642 29.3196C123.512 28.1787 122.636 26.8441 122.012 25.3157C121.388 23.7765 121.076 22.1029 121.076 20.2947C121.076 18.4757 121.388 16.802 122.012 15.2736C122.636 13.7345 123.512 12.3999 124.642 11.2697C125.772 10.1396 127.1 9.26238 128.628 8.63812C130.167 8.01385 131.845 7.70172 133.663 7.70172C135.481 7.70172 137.154 8.01385 138.682 8.63812C140.209 9.26238 141.538 10.1396 142.668 11.2697C143.797 12.3999 144.674 13.7345 145.298 15.2736C145.922 16.802 146.234 18.4757 146.234 20.2947C146.234 22.1029 145.922 23.7765 145.298 25.3157C144.674 26.8441 143.797 28.1787 142.668 29.3196C141.538 30.4497 140.209 31.3269 138.682 31.9512C137.154 32.5754 135.481 32.8876 133.663 32.8876ZM133.663 30.369C135.051 30.369 136.331 30.1161 137.504 29.6102C138.687 29.1043 139.715 28.3993 140.586 27.4952C141.457 26.5804 142.13 25.5148 142.603 24.2986C143.087 23.0716 143.329 21.7369 143.329 20.2947C143.329 18.8524 143.087 17.5177 142.603 16.2907C142.13 15.0637 141.457 13.9982 140.586 13.0941C139.715 12.1792 138.687 11.4742 137.504 10.9791C136.331 10.4732 135.051 10.2203 133.663 10.2203C132.275 10.2203 130.99 10.4732 129.806 10.9791C128.633 11.4742 127.611 12.1792 126.74 13.0941C125.869 13.9982 125.191 15.0637 124.707 16.2907C124.223 17.5177 123.98 18.8524 123.98 20.2947C123.98 21.7369 124.223 23.0716 124.707 24.2986C125.191 25.5256 125.869 26.5965 126.74 27.5114C127.611 28.4155 128.633 29.1205 129.806 29.6263C130.99 30.1214 132.275 30.369 133.663 30.369Z" fill="white"/>
<path d="M115.189 32.4032H112.026L106.248 22.5549H100.536V32.4032H97.6956V8.18607H106.071C107.803 8.18607 109.293 8.47667 110.541 9.05788C111.789 9.6391 112.752 10.4679 113.43 11.5442C114.107 12.6097 114.446 13.8852 114.446 15.3705C114.446 17.1034 113.984 18.5564 113.059 19.7296C112.144 20.9028 110.858 21.7154 109.202 22.1674L115.189 32.4032ZM100.536 20.0363H105.893C107.647 20.0363 109.024 19.622 110.025 18.7932C111.036 17.9644 111.542 16.8235 111.542 15.3705C111.542 13.9175 111.041 12.7766 110.041 11.9478C109.04 11.119 107.658 10.7047 105.893 10.7047H100.536V20.0363Z" fill="white"/>
<path d="M73.5731 32.4032V8.18607H81.0287C83.0082 8.18607 84.7027 8.49282 86.112 9.10632C87.5321 9.71982 88.6187 10.597 89.3718 11.7379C90.1249 12.8788 90.5014 14.2457 90.5014 15.8387C90.5014 17.4209 90.1249 18.7878 89.3718 19.9395C88.6187 21.0911 87.5321 21.9791 86.112 22.6034C84.7027 23.2169 83.0082 23.5236 81.0287 23.5236H76.4133V32.4032H73.5731ZM76.4133 21.005H80.7866C82.9598 21.005 84.6381 20.5476 85.8215 19.6327C87.005 18.7178 87.5967 17.4532 87.5967 15.8387C87.5967 14.2242 87.005 12.9649 85.8215 12.0608C84.6381 11.1567 82.9598 10.7047 80.7866 10.7047H76.4133V21.005Z" fill="white"/>
<path d="M21.0568 32.8139C18.8476 32.8139 17.0568 31.0231 17.0568 28.8139V12.5968C17.0568 10.3876 18.8476 8.59677 21.0568 8.59677H24.9803C27.9066 8.59677 30.4402 9.09188 32.5811 10.0821C34.722 11.0723 36.3788 12.4715 37.5515 14.2797C38.7241 16.088 39.3105 18.2298 39.3105 20.7054C39.3105 23.1701 38.7241 25.312 37.5515 27.131C36.3788 28.9392 34.722 30.3384 32.5811 31.3286C30.4402 32.3188 27.9066 32.8139 24.9803 32.8139H21.0568ZM22.0271 26.471C22.0271 27.5756 22.9226 28.471 24.0271 28.471H25.1578C27.0943 28.471 28.735 28.1696 30.0798 27.5669C31.4353 26.9534 32.4628 26.0708 33.1621 24.9191C33.8721 23.7567 34.2271 22.3521 34.2271 20.7054C34.2271 19.0478 33.8721 17.6432 33.1621 16.4916C32.4628 15.3399 31.4353 14.4627 30.0798 13.86C28.735 13.2465 27.0943 12.9397 25.1578 12.9397H24.0271C22.9226 12.9397 22.0271 13.8351 22.0271 14.9397V26.471Z" fill="white"/>
<path d="M2.48519 8.59677C3.85772 8.59677 4.97037 9.70943 4.97037 11.082V30.3288C4.97037 31.7013 3.85772 32.8139 2.48519 32.8139C1.11266 32.8139 0 31.7013 0 30.3288V11.082C0 9.70943 1.11266 8.59677 2.48519 8.59677Z" fill="white"/>
<path d="M50.8889 25.9556L56.6726 20.1693L50.8889 14.3831" stroke="white" stroke-width="5" stroke-linecap="round" stroke-linejoin="round"/>
</svg>
